HIERARCHY
ROOT Hips
{
	OFFSET 0.000000  0.463670  0.080341
	CHANNELS 6 Xposition Yposition Zposition Zrotation Yrotation Xrotation 
	JOINT LHipJoint
	{
		OFFSET 0 0 0
		CHANNELS 3 Zrotation Yrotation Xrotation
		JOINT LeftUpLeg
		{
			OFFSET 0.949434 -0.248378 0.086503
			CHANNELS 3 Zrotation Yrotation Xrotation
			JOINT LeftLeg
			{
				OFFSET -0.076513 -3.879421 -0.177038
				CHANNELS 3 Zrotation Yrotation Xrotation
				JOINT LeftFoot
				{
					OFFSET -0.188964 -3.680973 -0.122632
					CHANNELS 3 Zrotation Yrotation Xrotation
					JOINT LeftToeBase
					{
						OFFSET 0.055451 -0.524480 1.120382
						CHANNELS 3 Zrotation Yrotation Xrotation
						End Site
						{
							OFFSET 0.007944 -0.006006 0.139660
						}
					}
				}
			}
		}
	}
	JOINT RHipJoint
	{
		OFFSET 0 0 0
		CHANNELS 3 Zrotation Yrotation Xrotation
		JOINT RightUpLeg
		{
			OFFSET -0.949434 -0.248378 0.086503
			CHANNELS 3 Zrotation Yrotation Xrotation
			JOINT RightLeg
			{
				OFFSET 0.076513 -3.879421 -0.177038
				CHANNELS 3 Zrotation Yrotation Xrotation
				JOINT RightFoot
				{
					OFFSET 0.188964 -3.680973 -0.122632
					CHANNELS 3 Zrotation Yrotation Xrotation
					JOINT RightToeBase
					{
						OFFSET -0.055451 -0.524480 1.120382
						CHANNELS 3 Zrotation Yrotation Xrotation
						End Site
						{
							OFFSET -0.007944 -0.006006 0.139660
						}
					}
				}
			}
		}
	}
	JOINT LowerBack
	{
		OFFSET 0 0 0
		CHANNELS 3 Zrotation Yrotation Xrotation
		JOINT Spine
		{
			OFFSET 0.000000 0.677144 0.028277
			CHANNELS 3 Zrotation Yrotation Xrotation
			JOINT Spine1
			{
				OFFSET 0.000000 2.156116 -0.508617
				CHANNELS 3 Zrotation Yrotation Xrotation
				JOINT Neck
				{
					OFFSET 0 0 0
					CHANNELS 3 Zrotation Yrotation Xrotation
					JOINT Neck1
					{
						OFFSET 0.000000 1.781871 0.216275
						CHANNELS 3 Zrotation Yrotation Xrotation
						JOINT Head
						{
							OFFSET 0.000000 1.015906 -0.026879
							CHANNELS 3 Zrotation Yrotation Xrotation
							End Site
							{
								OFFSET 0.000000 0.339197 0.983632
							}
						}
					}
				}
				JOINT LeftShoulder
				{
					OFFSET 0 0 0
					CHANNELS 3 Zrotation Yrotation Xrotation
					JOINT LeftArm
					{
						OFFSET 1.565866 1.184736 0.289545
						CHANNELS 3 Zrotation Yrotation Xrotation
						JOINT LeftForeArm
						{
							OFFSET 1.930940 -0.176441 -0.109244
							CHANNELS 3 Zrotation Yrotation Xrotation
							JOINT LeftHand
							{
								OFFSET 2.263412 -0.058986 0.122483
								CHANNELS 3 Zrotation Yrotation Xrotation
								JOINT LeftFingerBase
								{
									OFFSET 0 0 0
									CHANNELS 3 Zrotation Yrotation Xrotation
									JOINT LeftHandIndex1
									{
										OFFSET 0.944218 0.017559 0.358417
										CHANNELS 3 Zrotation Yrotation Xrotation
										End Site
										{
											OFFSET 0.237801 -0.022714 0.035813
										}
									}
								}
								JOINT LThumb
								{
									OFFSET 0 0 0
									CHANNELS 3 Zrotation Yrotation Xrotation
									End Site
									{
										OFFSET 0.234930 -0.092931 0.244282
									}
								}
							}
						}
					}
				}
				JOINT RightShoulder
				{
					OFFSET 0 0 0
					CHANNELS 3 Zrotation Yrotation Xrotation
					JOINT RightArm
					{
						OFFSET -1.565866 1.184736 0.289545
						CHANNELS 3 Zrotation Yrotation Xrotation
						JOINT RightForeArm
						{
							OFFSET -1.930940 -0.176441 -0.109244
							CHANNELS 3 Zrotation Yrotation Xrotation
							JOINT RightHand
							{
								OFFSET -2.263412 -0.058986 0.122483
								CHANNELS 3 Zrotation Yrotation Xrotation
								JOINT RightFingerBase
								{
									OFFSET 0 0 0
									CHANNELS 3 Zrotation Yrotation Xrotation
									JOINT RightHandIndex1
									{
										OFFSET -0.944218 0.017559 0.358417
										CHANNELS 3 Zrotation Yrotation Xrotation
										End Site
										{
											OFFSET -0.237801 -0.022714 0.035813
										}
									}
								}
								JOINT RThumb
								{
									OFFSET 0 0 0
									CHANNELS 3 Zrotation Yrotation Xrotation
									End Site
									{
										OFFSET -0.234930 -0.092931 0.244282
									}
								}
							}
						}
					}
				}
			}
		}
	}
}
MOTION
Frames: 8
Frame Time: .0083333
-0.152030 8.730495 -13.970990 0.000000 0.000000 0.000000 0.000000 0.000000 0.000000 0.000000 0.000000 0.000000 0.000000 0.000000 0.000000 0.000000 0.000000 0.000000 0.000000 0.000000 0.000000 0.000000 0.000000 0.000000 0.000000 0.000000 0.000000 0.000000 0.000000 0.000000 0.000000 0.000000 0.000000 0.000000 0.000000 0.000000 0.000000 0.000000 0.000000 0.000000 0.000000 0.000000 0.000000 0.000000 0.000000 0.000000 0.000000 0.000000 0.000000 0.000000 0.000000 0.000000 0.000000 0.000000 0.000000 0.000000 0.000000 0.000000 0.000000 0.000000 0.000000 0.000000 0.000000 0.000000 0.000000 0.000000 0.000000 0.000000 0.000000 0.000000 0.000000 0.000000 0.000000 0.000000 0.000000 0.000000 0.000000 0.000000 0.000000 0.000000 0.000000 0.000000 0.000000 0.000000 0.000000 0.000000 0.000000 0.000000 0.000000 0.000000 0.000000 0.000000 0.000000 0.000000 0.000000 0.000000
-0.152030 8.730495 -13.970990 -4.546000 1.442100 2.360800 0.000000 0.000000 0.000000 2.889999 -11.071900 -25.402800 4.079300 12.265100 36.676399 -0.033400 -7.890400 -4.789500 0.100300 2.041900 5.621500 0.000000 0.000000 0.000000 4.751101 -3.091200 3.455200 -17.373800 -19.833799 82.301003 -1.510800 -17.492800 23.587200 -1.147600 -6.802200 19.130800 1.652700 -0.182500 15.409400 -0.110100 0.031800 1.545800 -1.060700 -0.033600 -6.997700 -1.346300 -0.677000 12.758400 1.081000 -0.818300 -30.282000 0.578100 -0.388700 -13.355100 -0.000000 0.000000 0.000000 -74.854599 15.880500 40.011200 123.144798 -55.411999 -88.262001 -0.000000 0.000000 -30.739500 40.299900 10.385300 8.691900 -7.125000 0.000000 -0.000000 12.105700 43.161701 -0.557900 -0.000000 0.000000 0.000000 69.415497 -10.288800 47.245201 -69.151703 58.292198 -42.048401 0.000000 0.000000 2.469000 -40.625500 25.793699 -20.469999 7.125000 -0.000000 -0.000000 -6.359100 2.329600 -6.652800
-0.150347 8.694258 -13.725396 -4.338700 1.770700 2.025500 0.000000 0.000000 0.000000 2.324100 -11.446100 -24.278400 4.592700 12.909800 39.031898 0.168400 -7.080300 -8.238700 0.000600 0.164200 0.451100 0.000000 0.000000 0.000000 3.550900 -3.425600 0.632400 -18.940599 -19.973101 86.901299 -1.348000 -17.815500 22.670401 -1.379100 -7.431200 20.999399 1.351900 -0.380600 16.060801 -0.054000 -0.267000 1.686700 -0.766000 -0.169600 -7.214200 -1.559100 -0.493700 13.111400 1.159000 -0.568000 -30.886299 0.642500 -0.258300 -13.623000 -0.000000 -0.000000 0.000000 -75.190697 13.075800 40.509701 123.683998 -55.245602 -88.705498 -0.000000 0.000000 -30.202499 39.628799 9.539100 7.814300 -7.125000 0.000000 -0.000000 11.392900 42.008701 -0.853000 -0.000000 -0.000000 0.000000 69.741203 -10.874900 46.115501 -64.933800 57.487400 -38.475101 0.000000 0.000000 5.333500 -42.443501 25.179001 -21.260000 7.125000 -0.000000 -0.000000 -7.546400 2.270100 -7.907200
-0.145644 8.649901 -13.484356 -4.065200 1.942800 1.628500 0.000000 0.000000 0.000000 1.605499 -11.434500 -22.664700 4.887800 13.256300 40.335499 0.310700 -6.923900 -10.346500 0.013300 -0.744300 -2.045600 0.000000 0.000000 0.000000 2.295900 -3.465800 -2.270300 -20.465099 -19.994801 91.360100 -1.288400 -17.476601 22.175900 -1.497000 -7.728700 21.893000 1.141800 -0.520000 16.929199 -0.143200 -0.483800 1.814700 -0.690300 -0.270500 -7.559500 -1.560800 -0.313900 13.400700 1.240600 -0.320800 -31.583401 0.671300 -0.136600 -13.915000 -0.000000 -0.000000 0.000000 -75.184700 10.030600 41.266602 124.052200 -55.129700 -89.007797 -0.000000 0.000000 -29.785400 39.175499 9.087300 7.333600 -7.125000 0.000000 -0.000000 10.933900 41.387199 -0.987500 -0.000000 -0.000000 0.000000 70.383003 -11.514700 44.527401 -61.667099 56.738098 -35.731701 0.000000 0.000000 7.295400 -43.489498 25.308701 -22.073999 7.125000 -0.000000 -0.000000 -8.111900 2.822600 -8.586400
-0.146089 8.620445 -13.241584 -2.947800 2.049300 1.482300 0.000000 0.000000 0.000000 0.023800 -11.334400 -21.132299 5.105000 13.501100 41.274399 0.427500 -7.338100 -11.968600 0.042400 -1.329000 -3.654500 0.000000 0.000000 0.000000 0.082500 -3.309500 -5.418700 -21.883900 -19.914700 95.515701 -1.264700 -16.247601 21.625401 -1.458700 -7.633600 21.606501 -0.135800 -0.570300 17.624100 -0.368200 -0.808400 1.623300 -0.123000 -0.390000 -8.142400 -1.946000 0.001200 14.847200 1.626100 0.115900 -32.500801 0.867000 0.080500 -14.510900 0.000000 0.000000 0.000000 -75.260300 7.583200 41.942101 124.497299 -54.987301 -89.372704 -0.000000 0.000000 -29.181900 39.544800 9.014300 7.371100 -7.125000 0.000000 -0.000000 11.261900 41.339298 -1.031500 0.000000 0.000000 0.000000 70.889999 -12.816100 43.015400 -59.641201 56.213600 -34.042702 0.000000 0.000000 7.964600 -44.015900 25.797800 -22.806700 7.125000 -0.000000 -0.000000 -8.288800 3.612200 -8.885700
-0.152921 8.588465 -13.008070 -1.278700 2.003700 1.602400 0.000000 0.000000 0.000000 -2.100901 -11.039600 -19.757601 5.235900 13.644700 41.832298 0.577600 -7.186500 -13.692500 0.125200 -2.280600 -6.281700 0.000000 0.000000 0.000000 -2.772200 -2.854700 -8.961500 -23.230301 -19.747900 99.483101 -1.174000 -14.362700 20.449699 -1.191700 -6.927300 19.500000 -2.098400 -0.505600 17.867599 -0.706400 -1.140800 1.638900 0.711600 -0.487100 -8.229600 -2.440600 0.376200 15.571800 2.045300 0.642700 -33.178501 1.085100 0.345700 -14.908000 0.000000 -0.000000 0.000000 -75.317200 4.448400 42.296200 124.694397 -54.923401 -89.534103 -0.000000 0.000000 -28.566500 38.647301 9.209100 7.292700 -7.125000 0.000000 -0.000000 10.465500 41.477299 -0.920600 0.000000 -0.000000 0.000000 71.345497 -13.682600 41.518700 -58.029400 55.761501 -32.706600 0.000000 0.000000 7.679200 -43.487900 25.932600 -22.529600 7.125000 -0.000000 -0.000000 -7.956700 3.562400 -8.516200
-0.159356 8.562029 -12.775297 0.104800 1.751100 2.008700 0.000000 0.000000 0.000000 -3.837099 -10.669400 -18.450600 5.277800 13.690000 42.009602 0.728700 -6.749400 -15.255500 0.174600 -2.691700 -7.421500 0.000000 0.000000 0.000000 -5.190000 -2.032500 -12.852300 -24.386600 -19.532301 102.922401 -0.987900 -12.343200 18.522600 -0.701700 -5.354400 14.922300 -3.567900 -0.280200 17.718599 -1.204700 -1.156700 2.034800 1.009000 -0.465800 -7.699100 -2.239800 0.581200 14.442400 2.260400 0.980000 -33.760201 1.112900 0.502500 -14.908300 0.000000 -0.000000 0.000000 -74.793098 0.403900 43.092999 124.832001 -54.878502 -89.646698 -0.000000 0.000000 -27.867701 38.278999 10.637200 8.288000 -7.125000 0.000000 -0.000000 10.242600 43.200001 -0.460100 0.000000 -0.000000 0.000000 72.449203 -13.623100 39.316799 -56.424099 55.279202 -31.383301 0.000000 0.000000 7.162700 -42.753101 25.858500 -21.960100 7.125000 -0.000000 -0.000000 -7.558600 3.189400 -8.036100
-0.160050 8.542129 -12.540594 0.051200 1.694800 2.367100 0.000000 0.000000 0.000000 -3.998100 -10.134600 -17.092100 5.284800 13.697500 42.039001 0.825200 -7.145400 -16.240601 0.170000 -2.656000 -7.322500 0.000000 0.000000 0.000000 -5.657900 -1.225100 -16.688101 -25.264700 -19.322100 105.561798 -0.719700 -10.846600 15.863200 -0.250500 -3.220300 8.892700 -3.392600 -0.316700 17.535000 -1.307200 -1.160200 2.344100 0.796900 -0.484300 -7.269100 -2.038600 0.800000 13.792200 2.352700 1.315700 -34.591400 1.103800 0.660100 -15.090600 -0.000000 0.000000 0.000000 -74.357399 -3.081600 44.011101 124.820000 -54.882401 -89.636803 -0.000000 0.000000 -26.600401 39.102200 14.481400 11.488300 -7.125000 0.000000 -0.000000 11.317500 48.059101 0.864500 -0.000000 0.000000 0.000000 73.474701 -13.709900 37.204102 -54.981201 54.817101 -30.200701 0.000000 0.000000 6.835400 -42.765301 25.864100 -21.972601 7.125000 -0.000000 -0.000000 -7.564100 3.200700 -8.043500
